<svg width="70" height="31" viewBox="0 0 70 31" fill="none" xmlns="http://www.w3.org/2000/svg">
<path fill-rule="evenodd" clip-rule="evenodd" d="M11.1022 9.39808C11.1638 9.23113 12.5067 6.93506 12.5484 6.9069L13.6167 8.73519C13.9091 9.2021 14.4001 10.1036 14.6884 10.5933C14.7941 10.7727 15.3678 11.7398 15.4071 11.8567L12.1745 10.0255C12.0124 9.93268 11.1814 9.47632 11.1022 9.39808ZM6.3093 10.8385L6.53178 10.9698C6.63061 10.8137 6.75147 10.6015 6.81082 10.5241C6.82453 10.5062 6.90882 10.5613 6.93216 10.5839C6.86145 10.7116 6.85257 10.7267 6.80616 10.8063C6.75474 10.8947 6.71892 10.9657 6.6722 11.0407L7.05804 11.2714C7.14552 11.1145 7.24097 10.963 7.31554 10.8116L7.45193 10.8851C7.39816 10.9887 7.26845 11.2218 7.19563 11.3439C7.26168 11.3909 7.45735 11.4958 7.54479 11.5359C7.67414 11.3328 7.82412 11.0408 7.9455 10.8408L8.08269 10.915C7.95697 11.1496 7.83447 11.3579 7.68007 11.6219C7.74429 11.6677 7.98298 11.7933 8.07082 11.8404C8.10137 11.784 8.28266 11.4715 8.32815 11.3999L8.44451 11.4685C8.36401 11.626 8.28597 11.7568 8.20116 11.9175L8.57597 12.1364C8.6464 12.0183 8.7491 11.8234 8.83359 11.695L8.94736 11.752C8.8727 11.9064 8.79391 12.0442 8.70516 12.2031L9.06395 12.4169C9.19238 12.2005 9.33049 11.9368 9.45745 11.7168C9.50306 11.7403 9.54102 11.7613 9.58177 11.7845C9.50186 11.9425 9.29285 12.322 9.1927 12.4852C9.28285 12.5439 9.45135 12.6363 9.55158 12.685L9.80872 12.2389L9.92229 12.3144L9.67073 12.7584C9.78505 12.8423 9.925 12.9018 10.0465 12.9829C10.1073 12.8913 10.2379 12.6625 10.3057 12.5421L10.419 12.603C10.361 12.7251 10.2193 12.9689 10.1686 13.062C10.3051 13.134 10.3666 13.1753 10.5454 13.2593C10.6814 13.0201 10.8103 12.8003 10.9504 12.5729L11.062 12.6297C10.9351 12.8811 10.8109 13.0972 10.671 13.3477L11.0378 13.5413C11.114 13.4248 11.2361 13.2191 11.3152 13.1088L11.4191 13.1699C11.3131 13.3563 11.253 13.4428 11.1637 13.6153C11.2928 13.6925 11.4127 13.7605 11.5387 13.8235C11.6023 13.7186 11.6742 13.5918 11.8012 13.401C11.8449 13.4263 11.858 13.4329 11.9108 13.467C11.8439 13.5786 11.7448 13.7588 11.672 13.8962C11.7385 13.9396 11.7714 13.9604 11.8394 13.999L12.0413 14.1072L12.4155 13.4334C12.4941 13.4687 12.4729 13.4625 12.54 13.4966C12.4118 13.6984 12.2802 13.9591 12.1565 14.1742C12.2365 14.2265 12.4118 14.3203 12.5077 14.3736C12.5696 14.2675 12.679 14.0928 12.7715 13.955C12.8142 13.9849 12.8329 13.9899 12.8742 14.0244L12.6271 14.4545C12.7483 14.5175 12.9099 14.6166 13.0123 14.6552C13.0506 14.5851 13.2076 14.3072 13.2613 14.243L13.3776 14.296C13.2869 14.4833 13.2441 14.5502 13.1513 14.7469C13.2785 14.8204 13.3609 14.8797 13.5061 14.9335C13.6238 14.7316 13.7572 14.4924 13.8877 14.293L14.0228 14.3407C13.8997 14.5764 13.7878 14.7896 13.6432 15.0274L14.0131 15.2375C14.0935 15.09 14.1808 14.9558 14.2596 14.8149L14.3647 14.8774C14.2916 15.036 14.2278 15.1539 14.1442 15.3093C14.2225 15.3623 14.4305 15.4836 14.5172 15.5212C14.5977 15.3966 14.6927 15.2506 14.7721 15.1141L14.8831 15.1834C14.8189 15.3138 14.7104 15.4774 14.647 15.5893L15.0049 15.806C15.0736 15.7024 15.1375 15.5869 15.2037 15.4669C15.2504 15.3824 15.3019 15.2934 15.4081 15.1447C15.4428 15.1697 15.4482 15.1731 15.5173 15.2119C15.4254 15.3746 15.2889 15.6175 15.1446 15.8951C15.2589 15.9507 15.3602 16.0154 15.4949 16.0773C15.5493 15.9775 15.6736 15.7541 15.7317 15.6742C15.7856 15.6985 15.8368 15.735 15.8363 15.7363C15.7755 15.8826 15.7071 15.9984 15.6277 16.1626L16.0054 16.3681C16.0767 16.2533 16.1891 16.0792 16.268 15.9704L16.3617 16.0241C16.2701 16.2037 16.2229 16.2759 16.1321 16.4452C16.2364 16.5173 16.3822 16.5889 16.4828 16.6474C16.5619 16.5297 16.7706 16.1527 16.8664 15.9894C16.9367 16.0236 16.9373 16.0166 16.9891 16.0702C16.8937 16.2523 16.7004 16.5467 16.6201 16.7338C16.7112 16.784 16.8833 16.8819 16.9649 16.917C17.0419 16.7971 17.1024 16.6823 17.185 16.5627C17.2406 16.5842 17.2734 16.6018 17.3051 16.6181C17.259 16.6929 17.1358 16.9263 17.0956 17.0134C17.2229 17.0726 17.3489 17.1632 17.4761 17.2094C17.5588 17.1002 17.6094 16.9544 17.7009 16.8476L17.8176 16.897C17.7754 17.0015 17.6764 17.1732 17.6121 17.2825C17.6768 17.3435 17.8859 17.4477 17.9755 17.4862C18.0905 17.3136 18.2004 17.0869 18.3605 16.8521L18.4565 16.9086C18.3384 17.1517 18.2145 17.3698 18.107 17.5604L18.4581 17.7711C18.4969 17.7363 18.473 17.7598 18.502 17.7249C18.5553 17.6384 18.6511 17.4879 18.7143 17.3952L18.8195 17.4526C18.7871 17.5273 18.6414 17.7882 18.5992 17.8384L18.9662 18.064C19.054 17.9453 19.1416 17.803 19.1975 17.6844L19.3211 17.7379C19.2502 17.8867 19.2165 17.9654 19.1211 18.1416C19.1892 18.1956 19.3949 18.3206 19.4782 18.3391C19.5781 18.1605 19.7148 17.9247 19.8246 17.7148L19.9564 17.7708C19.8907 17.8915 19.6775 18.3003 19.5994 18.4196C19.674 18.4736 19.8621 18.5808 19.9526 18.6132C20.031 18.5044 20.1031 18.3724 20.1762 18.2469L20.2957 18.3021C20.2209 18.454 20.1657 18.5518 20.0916 18.6955L20.4689 18.9166C20.5232 18.8242 20.6236 18.6481 20.6854 18.5467L20.8058 18.6067C20.7576 18.7027 20.6679 18.8731 20.6061 19.0044L20.9517 19.1871C21.0554 19.0223 21.2307 18.734 21.3147 18.5689C21.3725 18.5884 21.3814 18.5934 21.4386 18.6219L21.0818 19.2585C21.1836 19.3406 21.3132 19.4035 21.4183 19.463C21.423 19.4585 21.4297 19.4444 21.4316 19.4486L21.6343 19.0907L21.7681 19.1466L21.5637 19.53C21.6895 19.6132 21.826 19.6962 21.9483 19.7625C22.0088 19.6508 22.099 19.4731 22.1585 19.3898L22.2732 19.4464C22.2068 19.5928 22.1551 19.6717 22.0717 19.8427C22.1705 19.8934 22.3257 19.9926 22.4291 20.0258C22.5266 19.8754 22.6648 19.6571 22.8082 19.421L22.9046 19.4672C22.8835 19.5702 22.6119 19.9899 22.5494 20.1152C22.6741 20.1591 22.7836 20.2573 22.9092 20.3024C22.9489 20.2628 22.9832 20.2029 23.0268 20.1287C23.0678 20.059 23.1104 19.9935 23.1386 19.9464L23.2492 19.9974C23.204 20.1056 23.086 20.3292 23.0474 20.379C23.1347 20.4388 23.3306 20.5622 23.4324 20.5994C23.5184 20.4773 23.5744 20.3596 23.6421 20.244L23.762 20.2941C23.7023 20.4128 23.6089 20.5865 23.5499 20.675C23.7595 20.7946 24.7764 21.4106 24.9729 21.4773C24.906 21.3038 24.6971 20.9864 24.6015 20.8201L23.0498 18.1277C22.4039 17.0708 21.742 15.8619 21.1162 14.7809L18.7859 10.7428C17.7415 8.96504 16.7343 7.17507 15.6891 5.37475C15.5753 5.17864 15.4103 4.91453 15.2962 4.70368C14.919 4.0068 14.5245 3.3686 14.1323 2.68554C14.0621 2.56317 12.6809 0.126597 12.5736 0C12.4543 0.0920596 11.1953 2.34977 10.997 2.69212C10.7189 3.17241 10.4917 3.57531 10.2189 4.03672L9.4359 5.4006C8.69548 6.74911 7.86555 8.09726 7.08354 9.46612C6.96009 9.68223 6.37988 10.6393 6.3093 10.8385Z" fill="white"/>
<path fill-rule="evenodd" clip-rule="evenodd" d="M69.1962 21.5157C69.2013 21.4135 67.0317 17.839 67.0034 17.7914C66.6603 17.2151 66.2558 16.545 65.894 15.9417C65.5442 15.3584 65.1653 14.769 64.79 14.091C64.5988 13.7456 64.5451 13.7852 64.652 13.6148C65.6817 11.9728 66.7263 10.2086 67.754 8.57975L68.8888 6.73461L66.4244 6.74461C66.1867 7.16998 65.8881 7.61227 65.6422 8.01007L63.7281 11.1513C63.6349 11.3037 63.4329 11.7259 63.3687 11.7981C63.1298 11.3319 62.9057 10.9065 62.6762 10.4933L60.461 6.73493L57.9581 6.73454L58.482 7.63601C58.6618 7.93454 58.8331 8.21944 59.0132 8.51892C59.1845 8.80386 59.3638 9.09402 59.5486 9.40171C60.3641 10.7597 61.3528 12.4368 62.1768 13.7648C62.1095 13.9123 61.9656 14.1189 61.8693 14.2691L57.6727 21.0386C57.6001 21.1565 57.4305 21.4039 57.3927 21.5155L59.905 21.5157C60.0125 21.4052 60.244 20.9803 60.341 20.8265C60.5006 20.5734 60.622 20.3657 60.7721 20.1218L63.3139 15.8464L66.5764 21.5156L69.1962 21.5157Z" fill="white"/>
<path fill-rule="evenodd" clip-rule="evenodd" d="M33.4222 8.82442C34.034 9.04956 34.3226 10.0284 34.3258 10.864C34.329 11.7256 33.9324 12.5572 33.4089 12.8903C33.291 12.9538 30.7589 12.9174 30.6418 12.9174C29.7149 12.9174 28.788 12.9174 27.8611 12.9174L27.8587 21.5047H30.0898L30.0892 14.8672C30.2617 14.8203 32.1318 14.8682 32.5844 14.837C33.6364 14.8726 34.965 14.5011 35.6242 13.7482C36.6935 12.5268 36.9995 10.6153 36.3236 8.97232C35.6264 7.27773 34.2634 6.80138 32.3628 6.75134L27.864 6.75493V8.80219C28.7984 8.80219 29.7328 8.80219 30.6671 8.80219C30.9809 8.80219 33.3212 8.77072 33.4222 8.82442Z" fill="white"/>
<path fill-rule="evenodd" clip-rule="evenodd" d="M0 21.7656C0.166392 21.7083 0.517541 21.4847 0.70899 21.3638C0.913943 21.2344 1.17813 21.0887 1.39595 20.9626L9.602 16.1541C9.83452 16.018 10.0471 15.8897 10.2856 15.7527C10.4487 15.659 10.8024 15.4234 10.9668 15.373C10.8907 15.2782 10.7552 15.2295 10.6129 15.1489C9.15788 14.3246 7.61724 13.4057 6.17504 12.6138C5.96161 12.4966 5.65822 12.3025 5.49955 12.237C5.40383 12.3426 4.22148 14.432 4.11862 14.6132C3.99147 14.8371 3.89287 15.0011 3.7713 15.2041C3.64641 15.4126 3.53635 15.6142 3.42915 15.7972C3.21324 16.1656 2.98212 16.58 2.74808 16.9844L0.683097 20.555C0.567814 20.7523 0.462888 20.9377 0.343023 21.1496C0.240925 21.3301 0.0748109 21.5771 0 21.7656Z" fill="white"/>
<path fill-rule="evenodd" clip-rule="evenodd" d="M43.4548 21.5003H51.6925V19.377L43.4529 19.3774L43.4548 21.5003Z" fill="white"/>
<path fill-rule="evenodd" clip-rule="evenodd" d="M43.4541 14.5878H51.7067L51.6978 12.4856L43.4541 12.4856L43.4541 14.5878Z" fill="white"/>
<path fill-rule="evenodd" clip-rule="evenodd" d="M43.4542 8.80119C43.6417 8.75339 50.3713 8.7853 51.0352 8.78522C51.2406 8.78522 51.5017 8.75499 51.6953 8.80068L51.7068 6.73454H43.4541L43.4542 8.80119Z" fill="white"/>
<path fill-rule="evenodd" clip-rule="evenodd" d="M66.5359 28.7299C66.5359 27.419 68.0823 26.6738 68.9571 27.6885C69.4277 28.2344 69.5207 29.0697 69.0382 29.75C68.9784 29.8344 68.9809 29.8144 68.8995 29.8905C68.8358 29.9502 68.8307 29.9827 68.7637 30.0325C67.7787 30.7649 66.5359 30.003 66.5359 28.7299ZM69.9889 28.9574C70.1099 27.7746 69.2222 26.6755 68.1694 26.6175C67.3415 26.5719 66.7272 26.8789 66.3239 27.4173C66.0705 27.7555 65.9603 28.1215 65.8998 28.5647C65.7945 29.3365 66.1443 30.0328 66.6546 30.4459C67.5199 31.1463 68.5967 31.0788 69.3158 30.3826C69.7498 29.9624 69.9251 29.5799 69.9889 28.9574Z" fill="white"/>
<path fill-rule="evenodd" clip-rule="evenodd" d="M55.9366 27.293C56.4936 27.293 57.0922 27.2419 57.448 27.5227C57.7561 27.7658 57.9336 28.1974 57.9335 28.7553C57.9335 29.3201 57.7457 29.7663 57.4359 30.0009C57.0699 30.2781 56.4903 30.2192 55.9327 30.2192L55.9366 27.293ZM55.3146 30.8186C56.1115 30.8309 57.1476 30.9209 57.7207 30.5627C58.895 29.8288 58.872 27.653 57.7161 26.9527C57.1718 26.6228 56.1273 26.6821 55.3073 26.6934L55.3146 30.8186Z" fill="white"/>
<path fill-rule="evenodd" clip-rule="evenodd" d="M1.12004 27.2929C1.74119 27.2929 2.24547 27.24 2.62558 27.5336C3.29378 28.0497 3.25761 29.5207 2.61534 29.992C2.2279 30.2763 1.74494 30.2191 1.11534 30.2191L1.12004 27.2929ZM0.499286 30.8195C0.944327 30.8195 1.38949 30.8205 1.83449 30.8202C4.17191 30.8183 4.22382 27.7954 2.89718 26.9598C2.34175 26.6101 1.29902 26.6925 0.490204 26.6925L0.499286 30.8195Z" fill="white"/>
<path fill-rule="evenodd" clip-rule="evenodd" d="M29.8049 28.0022C29.8917 28.0729 30.0361 28.2959 30.138 28.3998C30.2602 28.5242 30.3776 28.6291 30.4995 28.7709C30.7276 29.0361 30.973 29.2448 31.2103 29.5012C31.3942 29.7 32.5326 30.8949 32.65 30.9575L32.65 26.6925H32.0747V29.5348C31.9847 29.4872 31.8311 29.2466 31.7362 29.1517C31.6042 29.0197 31.5251 28.8934 31.3931 28.7621C31.2645 28.6339 31.1536 28.5254 31.0252 28.397L30.1082 27.4692C30.0337 27.4044 30.0084 27.3501 29.946 27.2776L29.2213 26.5627L29.2308 30.836C29.4038 30.7891 29.61 30.8359 29.797 30.8123L29.8049 28.0022Z" fill="white"/>
<path fill-rule="evenodd" clip-rule="evenodd" d="M25.9232 28.7293H24.4187V29.2551C24.6084 29.2551 25.2066 29.2294 25.347 29.2739C25.354 29.3515 25.3494 29.5561 25.2998 29.5867C25.2417 30.2828 24.0734 30.5743 23.4005 30.1089C23.0383 29.8584 22.8032 29.4758 22.7716 28.9835C22.6894 27.6991 23.5632 27.0466 24.4337 27.2333C24.8911 27.3314 24.9961 27.5483 25.1581 27.6807C25.2573 27.6148 25.3083 27.5687 25.3929 27.4992C25.4988 27.4122 25.525 27.4354 25.6109 27.3129C25.3673 26.9835 24.9798 26.6963 24.4659 26.6246C23.8852 26.5436 23.3475 26.7115 22.9962 26.9482C21.5 27.9559 21.8082 31.1891 24.4962 30.9163C25.506 30.8138 25.8999 30.0384 25.9477 29.1603C25.9575 28.9807 25.9276 28.8673 25.9232 28.7293Z" fill="white"/>
<path fill-rule="evenodd" clip-rule="evenodd" d="M48.6952 26.6925C48.6379 27.0029 48.6803 27.8105 48.6803 28.174C48.6803 28.9637 48.5376 30.124 49.1717 30.6183C49.4305 30.8201 49.8555 30.9532 50.2767 30.9459C51.2457 30.9291 51.7043 30.4531 51.8229 29.5763L51.8266 26.6936L51.2178 26.7003C51.1842 26.8483 51.206 28.6679 51.206 28.9826C51.206 29.6512 51.164 30.3199 50.2517 30.3197C49.3414 30.3195 49.2982 29.6056 49.299 28.9826C49.2999 28.2208 49.299 27.459 49.299 26.6936L48.6952 26.6925Z" fill="white"/>
<path fill-rule="evenodd" clip-rule="evenodd" d="M7.72161 27.2679C7.9668 27.2679 9.07709 27.3 9.22253 27.2491L9.21866 26.6933L7.09201 26.6939L7.09918 30.8195L9.21902 30.8196L9.22133 30.2191H7.71695L7.7279 28.8937H9.22137L9.22045 28.2933H7.7183L7.72161 27.2679Z" fill="white"/>
<path fill-rule="evenodd" clip-rule="evenodd" d="M40.0525 29.6145C40.0525 28.7414 39.0987 28.5291 38.6328 28.1928C37.9919 27.7302 38.4274 27.0146 39.0627 27.2099C39.2335 27.2625 39.3556 27.4128 39.432 27.5532L39.9266 27.2984C39.8537 26.9936 39.6565 26.8273 39.3693 26.7023C38.5137 26.33 37.3444 26.9955 37.718 28.1022C37.9637 28.83 39.0347 29.0125 39.2762 29.3689C39.356 29.4867 39.4153 29.5851 39.4028 29.7907C39.3856 30.0753 39.151 30.3192 38.8295 30.3192C38.2847 30.3192 38.206 30.0639 38.0497 29.7609L37.5521 29.9927C37.6492 30.347 37.7415 30.4932 37.9622 30.6835C38.5748 31.2118 40.0525 30.9549 40.0525 29.7408V29.6145Z" fill="white"/>
<path fill-rule="evenodd" clip-rule="evenodd" d="M12.3443 29.9924C12.4174 30.7152 13.2187 31.0808 13.954 30.8897C14.7291 30.6882 14.9897 29.82 14.764 29.2434C14.6437 28.9363 14.3886 28.7503 14.1119 28.5801C13.838 28.4116 13.5043 28.2996 13.2922 28.0874C12.7938 27.5888 13.3443 26.9867 13.8998 27.2286C14.0848 27.3091 14.12 27.4423 14.2414 27.542C14.4027 27.4705 14.5583 27.3507 14.7165 27.2874C14.57 26.9849 14.4275 26.7736 14.0401 26.6616C12.7186 26.2795 11.9505 27.689 12.7716 28.5068C12.9736 28.708 13.2541 28.8561 13.5532 29.0162C13.815 29.1563 14.1649 29.3392 14.1938 29.6663C14.2518 30.3213 13.494 30.4895 13.0702 30.1536C12.9041 30.0218 12.8968 29.8608 12.8246 29.7626L12.3443 29.9924Z" fill="white"/>
<path fill-rule="evenodd" clip-rule="evenodd" d="M42.9283 27.2668L43.9534 27.2728L43.9635 30.8203L44.5788 30.8111L44.5845 27.2679H45.6042L45.6063 26.7839L45.5938 26.6924L42.93 26.6956L42.9283 27.2668Z" fill="white"/>
<path fill-rule="evenodd" clip-rule="evenodd" d="M18.1493 30.8178L18.7706 30.8195L18.7589 26.6918L18.1454 26.7003L18.1493 30.8178Z" fill="white"/>
<path fill-rule="evenodd" clip-rule="evenodd" d="M61.9393 30.8184L62.5315 30.8195C62.5698 30.5997 62.5677 26.871 62.5293 26.6921L61.9336 26.6971L61.9393 30.8184Z" fill="white"/>
<path fill-rule="evenodd" clip-rule="evenodd" d="M32.5845 14.837C32.1319 14.8682 30.2618 14.8203 30.0893 14.8672L30.09 21.5047H27.8589L27.8612 12.9174C28.7881 12.9174 29.715 12.9174 30.642 12.9174C30.759 12.9174 33.2911 12.9538 33.409 12.8903L27.8518 12.9003C27.8314 12.9623 27.7986 21.309 27.8475 21.5295L30.1006 21.5172C30.1492 21.309 30.1019 15.3837 30.1167 14.8763C30.536 14.8763 30.9554 14.8767 31.3748 14.8763C31.5855 14.8762 31.7956 14.8697 32.0066 14.8698C32.1077 14.8698 32.2088 14.8696 32.3099 14.8699C32.4368 14.8703 32.4872 14.8863 32.5845 14.837Z" fill="white"/>
<path fill-rule="evenodd" clip-rule="evenodd" d="M43.4548 21.5002L43.5786 21.5276C43.6181 21.5286 43.666 21.526 43.7067 21.5258C44.7884 21.5208 51.4817 21.5555 51.717 21.5155L51.7074 19.3647C51.4852 19.3193 44.768 19.3605 43.6814 19.3523C43.6449 19.352 43.5871 19.3486 43.5534 19.3507L43.4695 19.3684C43.4664 19.363 43.4582 19.3741 43.4529 19.3773L51.6925 19.3769V21.5002H43.4548Z" fill="white"/>
<path fill-rule="evenodd" clip-rule="evenodd" d="M33.4222 8.82442C33.3212 8.77072 30.9809 8.80219 30.6671 8.80219C29.7327 8.80219 28.7984 8.80219 27.864 8.80219V6.75493L32.3628 6.75135L28.974 6.72713C28.6761 6.72713 28.1195 6.69514 27.8526 6.73518C27.8183 6.86548 27.824 8.59752 27.8445 8.80913C28.0308 8.85474 33.0932 8.82442 33.4222 8.82442Z" fill="white"/>
<path fill-rule="evenodd" clip-rule="evenodd" d="M25.2998 29.5867C25.3493 29.5562 25.3539 29.3516 25.347 29.2739C25.2065 29.2294 24.6083 29.2551 24.4186 29.2551V28.7293H25.9231L25.8864 28.7115C25.8279 28.6961 25.904 28.7101 25.8417 28.7031C25.8238 28.7011 25.7615 28.7036 25.7395 28.7038C25.4428 28.7067 24.5718 28.6866 24.4087 28.7148C24.3707 28.8307 24.3657 29.1641 24.4137 29.2774L25.3193 29.2843L25.2998 29.5867Z" fill="white"/>
</svg>
